<svg xmlns="http://www.w3.org/2000/svg" viewBox="0 0 255.99 255.99"><defs><style>.cls-1{fill:#8fc7e8;}.cls-2{fill:#fff;}.cls-3{fill:#002d6b;}</style></defs><g id="Layer_2" data-name="Layer 2"><g id="Lager_1" data-name="Lager 1"><path class="cls-1" d="M128,256A128,128,0,1,0,0,128,128,128,0,0,0,128,256"></path><path class="cls-2" d="M243.91,128A115.85,115.85,0,1,1,128.06,12.15,115.85,115.85,0,0,1,243.91,128m6.58,0A122.44,122.44,0,1,0,128.06,250.43,122.43,122.43,0,0,0,250.49,128"></path><path class="cls-3" d="M173.79,178.29a9.44,9.44,0,0,0-3.48,3.45,10.57,10.57,0,0,0-1.06,2.46,9.78,9.78,0,0,0,5.6,11.51,9.27,9.27,0,0,0,3.72.76,9.74,9.74,0,0,0,3.68-.73,9.9,9.9,0,0,0,3.18-2.1,9,9,0,0,0,2.12-3.11,9.68,9.68,0,0,0,.73-3.75,9.82,9.82,0,0,0-.7-3.7,9.26,9.26,0,0,0-2.05-3.1,9.58,9.58,0,0,0-7-2.92,9.53,9.53,0,0,0-4.78,1.23m8,1a7.88,7.88,0,0,1,2.63,1.82,7.73,7.73,0,0,1,1.73,2.61,8.45,8.45,0,0,1,.58,3.18,7.81,7.81,0,0,1-2.38,5.56,8.81,8.81,0,0,1-2.69,1.76,8,8,0,0,1-3,.61,7.83,7.83,0,0,1-3.09-.63,8.18,8.18,0,0,1-2.64-1.81,7.92,7.92,0,0,1-1.7-8.74A8.41,8.41,0,0,1,173,181a7.44,7.44,0,0,1,2.55-1.71,8,8,0,0,1,3.07-.58,8.08,8.08,0,0,1,3.15.61M174.56,192h2.61v-4.41h1.29l2,4.41h2.92L181,187.15a3.19,3.19,0,0,0,1.74-1,2.81,2.81,0,0,0,.62-1.83,2.6,2.6,0,0,0-1.15-2.31,6.22,6.22,0,0,0-3.46-.78h-4.21Zm3.77-9.1a3.24,3.24,0,0,1,1.78.39,1.37,1.37,0,0,1,.57,1.21,1.28,1.28,0,0,1-.53,1.15,3.1,3.1,0,0,1-1.69.36h-1.29v-3.11Z"></path><path class="cls-3" d="M106.21,192.87c-.26-1.66-10.09-83.06-10.66-89S91,94.14,85.61,94.14a9.77,9.77,0,0,0-9.83,9.68,10.39,10.39,0,0,0,4.94,8.55,15.69,15.69,0,0,0,6,1.94c2.51.41,5.48,2,4.94,6a5.55,5.55,0,0,1-5.18,4.91,17.67,17.67,0,0,1-8.22-1.15,22.79,22.79,0,0,1-7-4.09,21.44,21.44,0,0,1-7.47-16.21A21.74,21.74,0,0,1,85.61,82.24h0c12,0,20.95,8.87,22,21.86s5.57,86.89,5.68,88.57c.13,1.93-.85,3.83-3.29,3.83S106.48,194.71,106.21,192.87Z"></path><path class="cls-3" d="M118.25,193c-.06-.47-.84-14.34-1.79-30.93-1.48-25.78-1.8-34.18-3.24-58S91.76,76.62,85.61,76.72a28.29,28.29,0,0,0-16,5.07,27.56,27.56,0,0,0-6.42,6.33A26.73,26.73,0,0,0,63.61,120a27,27,0,0,0,21.61,10.88c1.35,0,7.08-.31,8.2,4.65a5.9,5.9,0,0,1-4.72,6.91,29.53,29.53,0,0,1-8,.12c-20.15-2.1-34.62-18.76-34.62-38.76,0-10.41,4.38-19.94,11.59-27.58,6.07-6.43,16.53-11.43,28.88-11.43,23.17,0,38.75,16,38.76,40.73,0,0,.09,86,.09,86.4,0,1.49,0,2.69-1,3.64a3.2,3.2,0,0,1-2.35.9A3.62,3.62,0,0,1,118.25,193Z"></path><path class="cls-3" d="M146,196.5c-2.43,0-3.41-1.9-3.29-3.83.11-1.68,4.61-75.58,5.69-88.57s10-21.86,22-21.86h0a21.75,21.75,0,0,1,21.86,21.58A21.45,21.45,0,0,1,184.76,120a22.67,22.67,0,0,1-7,4.09,17.69,17.69,0,0,1-8.23,1.15,5.54,5.54,0,0,1-5.17-4.91c-.55-4,2.42-5.64,4.93-6a15.73,15.73,0,0,0,6-1.94,10.41,10.41,0,0,0,4.94-8.55,9.77,9.77,0,0,0-9.84-9.68c-5.42,0-9.37,3.8-9.94,9.74s-10.4,87.33-10.65,89C149.51,194.71,148.36,196.5,146,196.5Z"></path><path class="cls-3" d="M133.89,196.5a3.21,3.21,0,0,1-2.35-.9c-.95-.95-1-2.15-1-3.64,0-.42.08-86.4.08-86.4,0-24.75,15.59-40.73,38.76-40.73,12.35,0,22.82,5,28.89,11.43,7.21,7.64,11.59,17.17,11.58,27.58,0,20-14.47,36.66-34.62,38.76a29.45,29.45,0,0,1-8-.12,5.91,5.91,0,0,1-4.73-6.91c1.12-5,6.85-4.62,8.21-4.65A27,27,0,0,0,192.38,120a26.71,26.71,0,0,0,.39-31.92,27.41,27.41,0,0,0-6.43-6.33,28.29,28.29,0,0,0-16-5.07c-6.14-.1-26.16,3.48-27.6,27.32s-1.77,32.24-3.25,58c-.95,16.59-1.73,30.46-1.79,30.93A3.61,3.61,0,0,1,133.89,196.5Z"></path></g></g></svg>